<?xml version="1.0" encoding="utf-8"?>
<!-- Generator: Adobe Illustrator 23.1.0, SVG Export Plug-In . SVG Version: 6.00 Build 0)  -->
<svg version="1.1" id="Layer_1" xmlns="http://www.w3.org/2000/svg" xmlns:xlink="http://www.w3.org/1999/xlink" x="0px" y="0px"
	 viewBox="0 0 234.4 127.9" style="enable-background:new 0 0 234.4 127.9;" xml:space="preserve">
<style type="text/css">
	.st0{fill:#FFFFFF;}
	.st1{fill:#F6C018;}
	.st2{fill:#529033;}
	.st3{fill:#D23430;}
	.st4{fill:#38A3DC;}
</style>
<g>
	<g>
		<path class="st0" d="M64.9,127.9c2.4,0.1,5.6-0.1,8.9-0.7c13.3-2.4,24.9-8,34.6-17.4c1.4-1.3,1.6-2.2,0.4-3.8
			c-3.5-4.8-6.1-10.1-8.2-15.7c-0.8-2.2-1.5-2.5-3.1-0.5c-10,12.5-23,18-39,16.2c-23.4-2.6-40.4-24.5-36.8-47.8
			C25.2,35.7,44.4,20,66.7,21.4C89,22.9,106.2,41.3,106.5,64c0.6,39.8,34.8,68.9,74.2,63c32.5-4.9,56.9-36.4,53.4-69.2
			c-3.9-35.8-34.4-59.7-67.3-57.7c-15.8,0.9-29.5,7.1-41,18c-1.4,1.3-1.5,2.3-0.4,3.9c3.5,4.8,6.1,10.1,8.1,15.7
			c0.9,2.4,1.6,2.4,3.1,0.4c11.5-14.6,29.5-20.3,47-14.6c19.7,6.4,31.3,25.3,29.1,44.5c-2.5,22-19.6,37.8-40.5,38.5
			c-24.4,0.8-44.1-18.1-44.4-42.7c-0.4-33.3-25.3-60.5-58-63.6C34.9-3,3.4,23,0.3,58C-3.2,96.7,27.2,127.9,64.9,127.9z"/>
	</g>
	<g id="_x36_Lje1A.tif_3_">
		<g>
			<path class="st0" d="M39.3,71.5c4.5,0,9,0,13.4,0c0.2,0,0.5-0.2,0.7-0.3c2.4-2.4,4.7-4.9,7.7-7.9c-2.5-2.2-4.7-4.2-7-6.2
				c-0.4-0.3-0.9-0.7-1.3-0.7c-4.5-0.1-8.9,0-13.5,0C39.3,61.4,39.3,66.1,39.3,71.5z M87.2,56.3c-4.4,0-8.7,0-13,0
				c-0.5,0-1.1,0.2-1.4,0.5c-2.2,2.2-4.4,4.6-6.7,7c2.2,2.4,4.3,4.7,6.4,7c0.3,0.4,0.9,0.7,1.3,0.7c4.4,0.1,8.9,0,13.3,0
				C87.2,66.3,87.2,61.4,87.2,56.3z M55.7,87.6c5.2,0,10.1,0,15.2,0c0-4.4,0-8.6,0-12.8c0-0.5-0.2-1.1-0.5-1.4
				c-2.2-2.3-4.5-4.6-6.9-7c-2.6,2.6-5,5-7.3,7.4c-0.3,0.3-0.4,1-0.4,1.4C55.6,79.3,55.7,83.4,55.7,87.6z M63.2,61.1
				c2.4-2.3,4.8-4.6,7.1-6.8c0.2-0.2,0.4-0.6,0.4-0.9c0-4.4,0-8.7,0-13.1c-5.2,0-10,0-15.1,0c0,4.3,0,8.3,0,12.4
				c0,0.6,0.2,1.3,0.6,1.6C58.5,56.6,60.9,58.8,63.2,61.1z"/>
			<path class="st0" d="M39.3,71.5c0-5.4,0-10.2,0-15.2c4.5,0,9,0,13.5,0c0.4,0,0.9,0.4,1.3,0.7c2.3,2,4.5,4,7,6.2
				c-2.9,3-5.3,5.5-7.7,7.9c-0.2,0.2-0.4,0.3-0.7,0.3C48.3,71.5,43.9,71.5,39.3,71.5z"/>
			<path class="st0" d="M87.2,56.3c0,5.1,0,10,0,15.3c-4.4,0-8.9,0-13.3,0c-0.4,0-1-0.4-1.3-0.7c-2.1-2.2-4.2-4.5-6.4-7
				c2.3-2.4,4.5-4.7,6.7-7c0.3-0.3,0.9-0.5,1.4-0.5C78.5,56.3,82.8,56.3,87.2,56.3z"/>
			<path class="st0" d="M55.7,87.6c0-4.3,0-8.3,0-12.4c0-0.5,0.1-1.1,0.4-1.4c2.3-2.4,4.7-4.7,7.3-7.4c2.4,2.4,4.7,4.7,6.9,7
				c0.3,0.3,0.5,0.9,0.5,1.4c0,4.2,0,8.4,0,12.8C65.8,87.6,60.9,87.6,55.7,87.6z"/>
			<path class="st0" d="M63.2,61.1c-2.4-2.3-4.7-4.5-7-6.8c-0.4-0.4-0.5-1.1-0.6-1.6c0-4,0-8.1,0-12.4c5,0,9.9,0,15.1,0
				c0,4.4,0,8.7,0,13.1c0,0.3-0.2,0.7-0.4,0.9C68,56.5,65.7,58.8,63.2,61.1z"/>
		</g>
	</g>
	<g>
		<circle class="st1" cx="170.7" cy="47.3" r="8.1"/>
		<circle class="st2" cx="155" cy="62.8" r="8.1"/>
		<circle class="st3" cx="186.5" cy="62.8" r="8.1"/>
		<circle class="st4" cx="170.7" cy="79.2" r="8.1"/>
	</g>
</g>
</svg>
